<svg width="17" height="21" viewBox="0 0 17 21" fill="none" xmlns="http://www.w3.org/2000/svg">
<path d="M10.7812 16.1719C11.125 15.8906 11.3906 15.5156 11.5781 15.0469C11.7656 14.5781 11.8438 14.1094 11.8125 13.6406C11.8125 13.4844 11.7969 13.3125 11.7656 13.125C11.7031 12.6875 11.5312 12.3125 11.25 12C11 11.6562 10.7031 11.3438 10.3594 11.0625C10.0469 10.7812 9.73438 10.4844 9.42188 10.1719C9.14062 9.85938 8.90625 9.5 8.71875 9.09375C8.6875 9.0625 8.64062 9.04688 8.57812 9.04688C8.51562 9.04688 8.48438 9.07812 8.48438 9.14062C8.35938 9.45312 8.28125 9.78125 8.25 10.125C8.25 10.4375 8.28125 10.7656 8.34375 11.1094C8.40625 11.5469 8.5 11.9688 8.625 12.375C8.75 12.7812 8.76562 13.2031 8.67188 13.6406C8.54688 14.1094 8.3125 14.5469 7.96875 14.9531C7.625 15.3594 7.15625 15.6562 6.5625 15.8438C6.5 15.875 6.45312 15.9219 6.42188 15.9844C6.42188 16.0469 6.45312 16.1094 6.51562 16.1719C6.89062 16.4844 7.34375 16.7344 7.875 16.9219C8.4375 17.0781 9 17.0625 9.5625 16.875C9.75 16.8125 9.95312 16.7188 10.1719 16.5938C10.4219 16.4688 10.625 16.3281 10.7812 16.1719ZM13.5938 8.15625C13.7812 8.3125 13.9375 8.46875 14.0625 8.625C14.2188 8.78125 14.3594 8.95312 14.4844 9.14062C14.8281 9.57812 15.1406 10.0625 15.4219 10.5938C15.4531 10.6562 15.4688 10.7188 15.4688 10.7812C15.5 10.8125 15.5312 10.8594 15.5625 10.9219C15.9375 11.7969 16.1094 12.7031 16.0781 13.6406C16.0469 14.5781 15.8281 15.4844 15.4219 16.3594C15.0469 17.2031 14.5156 17.9531 13.8281 18.6094C12.8906 19.4531 11.7969 20.0156 10.5469 20.2969C9.32812 20.5781 8.10938 20.6406 6.89062 20.4844C5.73438 20.3281 4.65625 19.9219 3.65625 19.2656C2.65625 18.5781 1.85938 17.7344 1.26562 16.7344C0.890625 16.1094 0.59375 15.4219 0.375 14.6719C0.28125 14.3906 0.203125 14.1094 0.140625 13.8281C0.109375 13.5156 0.09375 13.2188 0.09375 12.9375C0.03125 11.9375 0.140625 10.9531 0.421875 9.98438C0.703125 8.98438 1.15625 8.07812 1.78125 7.26562C1.90625 7.10938 2.04688 7.07812 2.20312 7.17188C2.39062 7.26562 2.46875 7.40625 2.4375 7.59375C2.3125 8.375 2.32812 9.17188 2.48438 9.98438C2.67188 10.7656 3.01562 11.4688 3.51562 12.0938C3.54688 12.1562 3.59375 12.2344 3.65625 12.3281C3.90625 12.5469 4.15625 12.5938 4.40625 12.4688C4.65625 12.3438 4.78125 12.1406 4.78125 11.8594C4.78125 11.7969 4.76562 11.7344 4.73438 11.6719C4.73438 11.6094 4.73438 11.5469 4.73438 11.4844C4.26562 10.2656 4.0625 9.03125 4.125 7.78125C4.21875 6.5 4.54688 5.3125 5.10938 4.21875C5.67188 3.09375 6.4375 2.125 7.40625 1.3125C7.71875 1.09375 8.03125 0.875 8.34375 0.65625C8.6875 0.4375 9.04688 0.25 9.42188 0.09375C9.57812 0.03125 9.70312 0.0625 9.79688 0.1875C9.92188 0.28125 9.95312 0.40625 9.89062 0.5625C9.57812 1.59375 9.53125 2.60938 9.75 3.60938C10 4.60937 10.5 5.48438 11.25 6.23438C11.625 6.60938 12.0156 6.9375 12.4219 7.21875C12.8281 7.5 13.2188 7.8125 13.5938 8.15625Z" fill="#EF4444"/>
</svg>
